<svg width="48" height="48" viewBox="0 0 48 48" fill="none" xmlns="http://www.w3.org/2000/svg">
<path d="M24 11L22.92 12.04C23.0599 12.1851 23.2277 12.3006 23.4132 12.3795C23.5988 12.4584 23.7984 12.499 24 12.499C24.2016 12.499 24.4012 12.4584 24.5868 12.3795C24.7723 12.3006 24.9401 12.1851 25.08 12.04L24 11ZM18.852 36.644C15.82 34.254 12.506 31.92 9.876 28.96C7.3 26.056 5.5 22.67 5.5 18.274H2.5C2.5 23.606 4.72 27.674 7.634 30.952C10.494 34.172 14.142 36.752 16.994 39L18.852 36.644ZM5.5 18.274C5.5 13.974 7.93 10.366 11.248 8.84797C14.472 7.37397 18.804 7.76397 22.92 12.04L25.08 9.96197C20.2 4.88797 14.528 4.04997 10 6.11997C5.572 8.14597 2.5 12.85 2.5 18.274H5.5ZM16.994 39C18.02 39.808 19.12 40.668 20.234 41.32C21.348 41.972 22.62 42.5 24 42.5V39.5C23.38 39.5 22.652 39.26 21.748 38.73C20.842 38.202 19.904 37.474 18.852 36.644L16.994 39ZM31.006 39C33.858 36.75 37.506 34.174 40.366 30.952C43.28 27.672 45.5 23.606 45.5 18.274H42.5C42.5 22.67 40.7 26.056 38.124 28.96C35.494 31.92 32.18 34.254 29.148 36.644L31.006 39ZM45.5 18.274C45.5 12.85 42.43 8.14597 38 6.11997C33.472 4.04997 27.804 4.88797 22.92 9.95997L25.08 12.04C29.196 7.76597 33.528 7.37397 36.752 8.84797C40.07 10.366 42.5 13.972 42.5 18.274H45.5ZM29.148 36.644C28.096 37.474 27.158 38.202 26.252 38.73C25.346 39.258 24.62 39.5 24 39.5V42.5C25.38 42.5 26.652 41.97 27.766 41.32C28.882 40.668 29.98 39.808 31.006 39L29.148 36.644Z" fill="#3B82F6"/>
</svg>
