<svg width="48" height="48" viewBox="0 0 48 48" fill="none" xmlns="http://www.w3.org/2000/svg">
<path d="M6.375 25.875H9.35625C9.5625 25.875 9.73125 25.7063 9.73125 25.5V13.5328H34.5094V16.9359C34.5094 17.025 34.5375 17.1094 34.5938 17.1797C34.6253 17.2202 34.6646 17.254 34.7093 17.2793C34.754 17.3045 34.8033 17.3206 34.8543 17.3267C34.9053 17.3328 34.957 17.3288 35.0064 17.3148C35.0558 17.3008 35.1019 17.2772 35.1422 17.2453L41.8594 11.9719C42.0609 11.7375 42.0281 11.4891 41.8594 11.3531L35.1422 6.08439C35.073 6.02909 34.987 5.9993 34.8984 6.00001C34.6828 6.00001 34.5047 6.17814 34.5047 6.39376V9.79689H9.36094C7.50937 9.79689 6 11.3063 6 13.1625V25.5C6 25.7063 6.16875 25.875 6.375 25.875ZM41.625 22.125H38.6438C38.4375 22.125 38.2688 22.2938 38.2688 22.5V34.4672H13.4906V31.0641C13.4906 30.975 13.4625 30.8906 13.4062 30.8203C13.3747 30.7798 13.3354 30.746 13.2907 30.7208C13.246 30.6955 13.1967 30.6794 13.1457 30.6733C13.0947 30.6672 13.043 30.6713 12.9936 30.6852C12.9442 30.6992 12.8981 30.7228 12.8578 30.7547L6.14062 36.0281C5.93906 36.2625 5.97188 36.5109 6.14062 36.6469L12.8578 41.9156C12.9281 41.9719 13.0125 42 13.1016 42C13.3172 42 13.4953 41.8219 13.4953 41.6063V38.2031H38.6484C40.5 38.2031 42.0094 36.6938 42.0094 34.8375V22.5C42 22.2938 41.8313 22.125 41.625 22.125Z" fill="#3B82F6"/>
</svg>
