<svg width="48" height="48" viewBox="0 0 48 48" fill="none" xmlns="http://www.w3.org/2000/svg">
<path d="M9.75 30H6.75C6.33579 30 6 30.3358 6 30.75V44.25C6 44.6642 6.33579 45 6.75 45H9.75C10.1642 45 10.5 44.6642 10.5 44.25V30.75C10.5 30.3358 10.1642 30 9.75 30Z" stroke="#3B82F6" stroke-width="3" stroke-linecap="round" stroke-linejoin="round"/>
<path d="M30.75 21H27.75C27.3358 21 27 21.3358 27 21.75V44.25C27 44.6642 27.3358 45 27.75 45H30.75C31.1642 45 31.5 44.6642 31.5 44.25V21.75C31.5 21.3358 31.1642 21 30.75 21Z" stroke="#3B82F6" stroke-width="3" stroke-linecap="round" stroke-linejoin="round"/>
<path d="M41.25 10.5H38.25C37.8358 10.5 37.5 10.8358 37.5 11.25V44.25C37.5 44.6642 37.8358 45 38.25 45H41.25C41.6642 45 42 44.6642 42 44.25V11.25C42 10.8358 41.6642 10.5 41.25 10.5Z" stroke="#3B82F6" stroke-width="3" stroke-linecap="round" stroke-linejoin="round"/>
<path d="M20.25 3H17.25C16.8358 3 16.5 3.33579 16.5 3.75V44.25C16.5 44.6642 16.8358 45 17.25 45H20.25C20.6642 45 21 44.6642 21 44.25V3.75C21 3.33579 20.6642 3 20.25 3Z" stroke="#3B82F6" stroke-width="3" stroke-linecap="round" stroke-linejoin="round"/>
</svg>
