<svg width="58" height="61" viewBox="0 0 58 61" fill="none" xmlns="http://www.w3.org/2000/svg">
<path d="M36 44.5H39V52H36V44.5ZM30 37H33V52H30V37ZM16.5 52C14.5116 51.9976 12.6053 51.2067 11.1993 49.8007C9.79332 48.3947 9.00238 46.4884 9 44.5H12C12 45.39 12.2639 46.26 12.7584 47.0001C13.2529 47.7401 13.9557 48.3169 14.7779 48.6575C15.6002 48.9981 16.505 49.0872 17.3779 48.9135C18.2508 48.7399 19.0526 48.3113 19.682 47.682C20.3113 47.0526 20.7399 46.2508 20.9135 45.3779C21.0872 44.505 20.9981 43.6002 20.6575 42.7779C20.3169 41.9557 19.7401 41.2529 19.0001 40.7584C18.26 40.2639 17.39 40 16.5 40V37C18.4891 37 20.3968 37.7902 21.8033 39.1967C23.2098 40.6032 24 42.5109 24 44.5C24 46.4891 23.2098 48.3968 21.8033 49.8033C20.3968 51.2098 18.4891 52 16.5 52Z" fill="#3B82F6"/>
<path d="M42 16H6C5.20435 16 4.44129 16.3161 3.87868 16.8787C3.31607 17.4413 3 18.2044 3 19V55C3 55.7956 3.31607 56.5587 3.87868 57.1213C4.44129 57.6839 5.20435 58 6 58H42C42.7953 57.9988 43.5577 57.6824 44.12 57.12C44.6824 56.5577 44.9988 55.7953 45 55V19C45 18.2044 44.6839 17.4413 44.1213 16.8787C43.5587 16.3161 42.7956 16 42 16ZM42 29.5H21V19H42V29.5ZM18 19V29.5H6V19H18ZM6 55V32.5H42L42.003 55H6Z" fill="#3B82F6"/>
<path d="M9.31625 11.188C9.01758 11.3933 8.71892 11.58 8.42025 11.748C8.13092 11.916 7.80892 12.0467 7.45425 12.14C7.09958 12.2333 6.67958 12.28 6.19425 12.28C5.37292 12.28 4.64492 12.1027 4.01025 11.748C3.38492 11.3933 2.89025 10.8893 2.52625 10.236C2.17158 9.57333 1.99425 8.78933 1.99425 7.884C1.99425 6.99733 2.16225 6.22733 2.49825 5.574C2.84358 4.91133 3.33358 4.398 3.96825 4.034C4.60292 3.67 5.35892 3.488 6.23625 3.488C6.79625 3.488 7.30958 3.56267 7.77625 3.712C8.24292 3.852 8.64892 4.05267 8.99425 4.314L9.41425 6.19L8.08425 6.512L7.76225 5.168C7.53825 5.03733 7.30492 4.94867 7.06225 4.902C6.82892 4.846 6.56758 4.818 6.27825 4.818C5.83025 4.818 5.40558 4.944 5.00425 5.196C4.61225 5.43867 4.29492 5.78867 4.05225 6.246C3.80958 6.70333 3.68825 7.24933 3.68825 7.884C3.68825 8.51867 3.79558 9.06 4.01025 9.508C4.22492 9.956 4.51892 10.3013 4.89225 10.544C5.26558 10.7773 5.69025 10.894 6.16625 10.894C6.50225 10.894 6.79158 10.8613 7.03425 10.796C7.27692 10.7213 7.52425 10.6233 7.77625 10.502V9.046H5.98425V7.758H9.31625V11.188ZM16.6419 11.23C16.2219 11.5847 15.7925 11.846 15.3539 12.014C14.9152 12.182 14.4625 12.266 13.9959 12.266C13.2959 12.266 12.6799 12.126 12.1479 11.846C11.6252 11.5567 11.2192 11.16 10.9299 10.656C10.6405 10.1427 10.4959 9.55467 10.4959 8.892C10.4959 8.20133 10.6312 7.604 10.9019 7.1C11.1819 6.58667 11.5645 6.19 12.0499 5.91C12.5352 5.62067 13.0999 5.476 13.7439 5.476C14.3879 5.476 14.9479 5.60667 15.4239 5.868C15.8999 6.12933 16.2685 6.498 16.5299 6.974C16.7912 7.44067 16.9219 7.99133 16.9219 8.626C16.9219 8.738 16.9125 8.864 16.8939 9.004C16.8845 9.144 16.8705 9.27933 16.8519 9.41H12.0359C12.0639 9.774 12.1712 10.0773 12.3579 10.32C12.5445 10.5533 12.7779 10.726 13.0579 10.838C13.3472 10.95 13.6599 11.006 13.9959 11.006C14.3879 11.006 14.7612 10.9453 15.1159 10.824C15.4705 10.6933 15.7925 10.5113 16.0819 10.278L16.6419 11.23ZM15.3399 8.318C15.3305 7.85133 15.1859 7.478 14.9059 7.198C14.6352 6.90867 14.2619 6.764 13.7859 6.764C13.3379 6.764 12.9459 6.90867 12.6099 7.198C12.2832 7.478 12.1012 7.85133 12.0639 8.318H15.3399ZM17.8683 12V10.726H19.0583V7.324L17.7143 6.862L18.1203 5.588L20.0663 6.26C20.4303 6.01733 20.7989 5.826 21.1723 5.686C21.5456 5.546 21.9889 5.476 22.5023 5.476C23.0809 5.476 23.5476 5.588 23.9023 5.812C24.2663 6.036 24.5323 6.34867 24.7003 6.75C24.8776 7.142 24.9663 7.59 24.9663 8.094V10.726H26.1283V12H22.7963V10.726H23.3843V8.304C23.3843 7.856 23.2863 7.506 23.0903 7.254C22.8943 6.99267 22.5723 6.862 22.1243 6.862C21.8536 6.862 21.5829 6.90867 21.3123 7.002C21.0509 7.09533 20.8269 7.20733 20.6403 7.338V10.726H21.2143V12H17.8683ZM27.0541 5.742H29.8261V10.726H30.9881V12H27.0541V10.726H28.2161V7.002H27.0541V5.742ZM28.8741 2.704C29.1635 2.704 29.3968 2.79267 29.5741 2.97C29.7515 3.14733 29.8401 3.38067 29.8401 3.67C29.8401 3.95933 29.7515 4.19267 29.5741 4.37C29.3968 4.54733 29.1635 4.636 28.8741 4.636C28.5848 4.636 28.3515 4.54733 28.1741 4.37C28.0061 4.19267 27.9221 3.95933 27.9221 3.67C27.9221 3.38067 28.0061 3.14733 28.1741 2.97C28.3515 2.79267 28.5848 2.704 28.8741 2.704ZM35.1843 5.476C35.8843 5.476 36.4816 5.61133 36.9763 5.882C37.471 6.15267 37.849 6.54467 38.1103 7.058C38.3716 7.562 38.5023 8.16867 38.5023 8.878C38.5023 9.942 38.2083 10.7727 37.6203 11.37C37.0416 11.9673 36.2296 12.266 35.1843 12.266C34.503 12.266 33.915 12.1307 33.4203 11.86C32.935 11.5893 32.5616 11.202 32.3003 10.698C32.0483 10.1847 31.9223 9.578 31.9223 8.878C31.9223 8.16867 32.0483 7.562 32.3003 7.058C32.5616 6.54467 32.935 6.15267 33.4203 5.882C33.915 5.61133 34.503 5.476 35.1843 5.476ZM35.1843 6.778C34.6243 6.778 34.1996 6.96 33.9103 7.324C33.6303 7.67867 33.4903 8.19667 33.4903 8.878C33.4903 9.55933 33.6303 10.082 33.9103 10.446C34.1996 10.81 34.6243 10.992 35.1843 10.992C35.763 10.992 36.197 10.81 36.4863 10.446C36.7756 10.082 36.9203 9.55933 36.9203 8.878C36.9203 8.19667 36.7756 7.67867 36.4863 7.324C36.197 6.96 35.763 6.778 35.1843 6.778ZM43.4539 6.82C43.2859 6.764 43.1133 6.722 42.9359 6.694C42.7679 6.65667 42.5859 6.638 42.3899 6.638C42.0633 6.638 41.7693 6.69867 41.5079 6.82C41.2559 6.94133 41.1299 7.128 41.1299 7.38C41.1299 7.59467 41.2046 7.76733 41.3539 7.898C41.5033 8.02867 41.7926 8.122 42.2219 8.178L43.0619 8.304C43.7899 8.39733 44.3173 8.598 44.6439 8.906C44.9706 9.214 45.1339 9.634 45.1339 10.166C45.1339 10.642 45.0079 11.0387 44.7559 11.356C44.5039 11.664 44.1679 11.8927 43.7479 12.042C43.3373 12.1913 42.8846 12.266 42.3899 12.266C41.8673 12.266 41.3959 12.21 40.9759 12.098C40.5653 11.9953 40.1873 11.8413 39.8419 11.636L39.5899 10.18L40.9199 9.942L41.0739 10.712C41.2699 10.8053 41.4706 10.8753 41.6759 10.922C41.8813 10.9687 42.0913 10.992 42.3059 10.992C42.6886 10.992 43.0199 10.9267 43.2999 10.796C43.5799 10.6653 43.7199 10.4693 43.7199 10.208C43.7199 10.012 43.6499 9.85333 43.5099 9.732C43.3699 9.61067 43.0899 9.52667 42.6699 9.48L41.8719 9.354C41.1999 9.25133 40.6726 9.04133 40.2899 8.724C39.9073 8.40667 39.7159 7.98667 39.7159 7.464C39.7159 7.05333 39.8279 6.69867 40.0519 6.4C40.2759 6.10133 40.5886 5.87267 40.9899 5.714C41.3913 5.55533 41.8486 5.476 42.3619 5.476C42.8006 5.476 43.2066 5.52733 43.5799 5.63C43.9533 5.72333 44.2986 5.882 44.6159 6.106L44.8679 7.45L43.6779 7.674L43.4539 6.82Z" fill="#3B82F6"/>
<path d="M52.7205 21.754C54.1019 21.754 55.1799 22.132 55.9545 22.888C56.7292 23.644 57.1165 24.6893 57.1165 26.024C57.1165 27.2747 56.7385 28.25 55.9825 28.95C55.2265 29.65 54.1765 30 52.8325 30H48.8845V28.586H50.0745V23.168H48.8845V21.754H52.7205ZM52.5805 28.586C53.5139 28.586 54.2185 28.3713 54.6945 27.942C55.1799 27.5127 55.4225 26.878 55.4225 26.038C55.4225 25.0953 55.1939 24.3813 54.7365 23.896C54.2792 23.4107 53.6072 23.168 52.7205 23.168H51.6985V28.586H52.5805ZM54.3245 38.72C53.6712 39.084 53.0039 39.266 52.3225 39.266C51.4545 39.266 50.7919 39.098 50.3345 38.762C49.8865 38.426 49.6625 37.936 49.6625 37.292C49.6532 35.9947 50.5072 35.346 52.2245 35.346H53.7925C53.7925 34.7767 53.6759 34.3613 53.4425 34.1C53.2092 33.8293 52.9059 33.694 52.5325 33.694C52.3272 33.694 52.1312 33.708 51.9445 33.736C51.7672 33.764 51.5899 33.806 51.4125 33.862L51.2865 34.548L49.9705 34.366L50.2225 32.882C50.5959 32.7513 50.9739 32.6533 51.3565 32.588C51.7485 32.5133 52.1545 32.476 52.5745 32.476C53.4892 32.476 54.1845 32.7187 54.6605 33.204C55.1459 33.68 55.3885 34.3847 55.3885 35.318V37.642L56.5645 38.02L56.1305 39.336L54.3245 38.72ZM52.2665 36.382C51.9492 36.382 51.7065 36.4613 51.5385 36.62C51.3705 36.7787 51.2865 36.998 51.2865 37.278C51.2865 37.81 51.6505 38.076 52.3785 38.076C52.8919 38.076 53.3632 37.9407 53.7925 37.67V36.396L52.2665 36.382ZM53.9984 48.266C53.5411 48.266 53.1398 48.1773 52.7944 48C52.4584 47.8227 52.1971 47.5473 52.0104 47.174C51.8238 46.8007 51.7304 46.32 51.7304 45.732V43.002H50.5684V41.742H51.7304V40.538L53.2704 40.076V41.742H54.9644V43.002H53.2704V45.284C53.2704 45.816 53.3404 46.2313 53.4804 46.53C53.6298 46.8287 53.8724 46.978 54.2084 46.978C54.4698 46.978 54.7824 46.8847 55.1464 46.698L55.4404 47.874C55.2258 47.9767 54.9924 48.0653 54.7404 48.14C54.4978 48.224 54.2504 48.266 53.9984 48.266ZM54.3245 56.72C53.6712 57.084 53.0039 57.266 52.3225 57.266C51.4545 57.266 50.7919 57.098 50.3345 56.762C49.8865 56.426 49.6625 55.936 49.6625 55.292C49.6532 53.9947 50.5072 53.346 52.2245 53.346H53.7925C53.7925 52.7767 53.6759 52.3613 53.4425 52.1C53.2092 51.8293 52.9059 51.694 52.5325 51.694C52.3272 51.694 52.1312 51.708 51.9445 51.736C51.7672 51.764 51.5899 51.806 51.4125 51.862L51.2865 52.548L49.9705 52.366L50.2225 50.882C50.5959 50.7513 50.9739 50.6533 51.3565 50.588C51.7485 50.5133 52.1545 50.476 52.5745 50.476C53.4892 50.476 54.1845 50.7187 54.6605 51.204C55.1459 51.68 55.3885 52.3847 55.3885 53.318V55.642L56.5645 56.02L56.1305 57.336L54.3245 56.72ZM52.2665 54.382C51.9492 54.382 51.7065 54.4613 51.5385 54.62C51.3705 54.7787 51.2865 54.998 51.2865 55.278C51.2865 55.81 51.6505 56.076 52.3785 56.076C52.8919 56.076 53.3632 55.9407 53.7925 55.67V54.396L52.2665 54.382Z" fill="#3B82F6"/>
</svg>
